# xmcd
# 
# Track frame offsets:
#     150
#     2948
#     23566
#     46004
#     89635
#     100196
#     120900
# 
# Disc length: 1779
# 
# Revision: 0
# Processed by: cddbd v1.5.2PL0 Copyright (c) Steve Scherf et al.
# Submitted via: fre:ac v1.0.17
# 
DISCID=4606f107
DTITLE=紫蓮 - 紫蓮
DYEAR=0
DGENRE=
TTITLE0=紫蓮1
TTITLE1=紫蓮2
TTITLE2=紫蓮3
TTITLE3=紫蓮4
TTITLE4=紫蓮5
TTITLE5=紫蓮6
TTITLE6=紫蓮7
EXTD=
EXTT0=
EXTT1=
EXTT2=
EXTT3=
EXTT4=
EXTT5=
EXTT6=
PLAYORDER=
